<svg xmlns="http://www.w3.org/2000/svg" width="1440" height="900" viewBox="0 0 1440 900">

<defs>
  <linearGradient id="bg" x1="0" y1="0" x2="1" y2="1">
    <stop offset="0" stop-color="#07111f"/>
    <stop offset="0.55" stop-color="#111827"/>
    <stop offset="1" stop-color="#172033"/>
  </linearGradient>
  <radialGradient id="vignette" cx="50%" cy="46%" r="70%">
    <stop offset="0" stop-color="#ffffff" stop-opacity="0.07"/>
    <stop offset="0.58" stop-color="#0f172a" stop-opacity="0"/>
    <stop offset="1" stop-color="#020617" stop-opacity="0.82"/>
  </radialGradient>
  <linearGradient id="floorGrad" x1="0" y1="0" x2="1" y2="1">
    <stop offset="0" stop-color="#475569"/>
    <stop offset="0.45" stop-color="#334155"/>
    <stop offset="1" stop-color="#111827"/>
  </linearGradient>
  <linearGradient id="wallLeft" x1="0" y1="0" x2="1" y2="1">
    <stop offset="0" stop-color="#1f2937"/>
    <stop offset="1" stop-color="#0f172a"/>
  </linearGradient>
  <linearGradient id="wallRight" x1="0" y1="0" x2="1" y2="1">
    <stop offset="0" stop-color="#273449"/>
    <stop offset="1" stop-color="#111827"/>
  </linearGradient>
  <radialGradient id="lamp" cx="50%" cy="50%" r="50%">
    <stop offset="0" stop-color="#fef3c7" stop-opacity="0.60"/>
    <stop offset="1" stop-color="#fef3c7" stop-opacity="0"/>
  </radialGradient>
  <pattern id="dust" width="86" height="86" patternUnits="userSpaceOnUse">
    <circle cx="9" cy="18" r="1.1" fill="#e5e7eb" opacity="0.22"/>
    <circle cx="44" cy="51" r="1.5" fill="#f8fafc" opacity="0.18"/>
    <circle cx="75" cy="27" r="0.9" fill="#cbd5e1" opacity="0.18"/>
    <circle cx="23" cy="78" r="0.7" fill="#fef3c7" opacity="0.16"/>
  </pattern>
  <filter id="softShadow" x="-30%" y="-30%" width="160%" height="160%">
    <feDropShadow dx="0" dy="16" stdDeviation="12" flood-color="#020617" flood-opacity="0.45"/>
  </filter>
  <filter id="glow" x="-50%" y="-50%" width="200%" height="200%">
    <feGaussianBlur stdDeviation="5" result="coloredBlur"/>
    <feMerge>
      <feMergeNode in="coloredBlur"/>
      <feMergeNode in="SourceGraphic"/>
    </feMerge>
  </filter>
</defs>

<rect width="1440" height="900" fill="url(#bg)"/>
<rect width="1440" height="900" fill="url(#vignette)" opacity="0.95"/>
<g filter="url(#softShadow)">
<path d="M150 650 L590 290 L1185 495 L745 820 Z" fill="url(#floorGrad)" stroke="#4b5563" stroke-width="2"/>
<path d="M150 650 L150 272 L590 80 L590 290 Z" fill="url(#wallLeft)" stroke="#334155" stroke-width="2"/>
<path d="M590 80 L1185 285 L1185 495 L590 290 Z" fill="url(#wallRight)" stroke="#334155" stroke-width="2"/>
</g>
<line x1="166.9" y1="99.1" x2="486.1" y2="484.8" stroke="#64748b" stroke-width="1" opacity="0.18"/>
<line x1="234.0" y1="122.3" x2="553.2" y2="508.0" stroke="#64748b" stroke-width="1" opacity="0.18"/>
<line x1="301.0" y1="145.6" x2="620.2" y2="531.3" stroke="#64748b" stroke-width="1" opacity="0.18"/>
<line x1="368.1" y1="168.8" x2="687.3" y2="554.5" stroke="#64748b" stroke-width="1" opacity="0.18"/>
<line x1="435.2" y1="192.0" x2="754.4" y2="577.7" stroke="#64748b" stroke-width="1" opacity="0.18"/>
<line x1="502.3" y1="215.2" x2="821.5" y2="600.9" stroke="#64748b" stroke-width="1" opacity="0.18"/>
<line x1="569.4" y1="238.4" x2="888.6" y2="624.1" stroke="#64748b" stroke-width="1" opacity="0.18"/>
<line x1="636.4" y1="261.7" x2="955.6" y2="647.4" stroke="#64748b" stroke-width="1" opacity="0.18"/>
<line x1="703.5" y1="284.9" x2="1022.7" y2="670.6" stroke="#64748b" stroke-width="1" opacity="0.18"/>
<line x1="770.6" y1="308.1" x2="1089.8" y2="693.8" stroke="#64748b" stroke-width="1" opacity="0.18"/>
<line x1="837.7" y1="331.3" x2="1156.9" y2="717.0" stroke="#64748b" stroke-width="1" opacity="0.18"/>
<line x1="904.8" y1="354.5" x2="1224.0" y2="740.2" stroke="#64748b" stroke-width="1" opacity="0.18"/>
<line x1="971.8" y1="377.8" x2="1291.0" y2="763.5" stroke="#64748b" stroke-width="1" opacity="0.18"/>
<line x1="459.8" y1="215.0" x2="1068.2" y2="425.6" stroke="#94a3b8" stroke-width="1" opacity="0.14"/>
<line x1="497.2" y1="260.2" x2="1105.6" y2="470.8" stroke="#94a3b8" stroke-width="1" opacity="0.14"/>
<line x1="534.7" y1="305.5" x2="1143.1" y2="516.1" stroke="#94a3b8" stroke-width="1" opacity="0.14"/>
<line x1="572.1" y1="350.7" x2="1180.5" y2="561.3" stroke="#94a3b8" stroke-width="1" opacity="0.14"/>
<line x1="609.6" y1="396.0" x2="1218.0" y2="606.6" stroke="#94a3b8" stroke-width="1" opacity="0.14"/>
<line x1="647.0" y1="441.2" x2="1255.4" y2="651.8" stroke="#94a3b8" stroke-width="1" opacity="0.14"/>
<line x1="684.4" y1="486.4" x2="1292.8" y2="697.0" stroke="#94a3b8" stroke-width="1" opacity="0.14"/>
<line x1="721.9" y1="531.7" x2="1330.3" y2="742.3" stroke="#94a3b8" stroke-width="1" opacity="0.14"/>
<line x1="759.3" y1="576.9" x2="1367.7" y2="787.5" stroke="#94a3b8" stroke-width="1" opacity="0.14"/>
<ellipse cx="965" cy="318" rx="290" ry="190" fill="url(#lamp)" opacity="0.55"/>
<g filter="url(#softShadow)"><path d="M533.6 257.1 l160 52 l-92 76 l-160 -52z" fill="#64748b" stroke="#cbd5e1" opacity="0.92"/><path d="M543.6 283.1 l126 41 l-60 48 l-125 -42z" fill="#94a3b8" opacity="0.35"/></g>
<g filter="url(#softShadow)"><path d="M790.4 432.9 l150 52 l-105 86 l-150 -52z" fill="#92400e" stroke="#fbbf24" opacity="0.86"/><path d="M800.4 449.9 l128 44 l-82 66 l-128 -44z" fill="#b45309" opacity="0.65"/></g>
<g filter="url(#softShadow)"><path d="M940.4 412.4 l190 64 l-74 58 l-190 -64z" fill="#f59e0b" stroke="#fef3c7" stroke-width="2"/><path d="M984.4 462.4 l86 29 l-16 15 l-86 -29z" fill="#111827" opacity="0.72"/><circle cx="1053.4" cy="481.4" r="8" fill="#fef3c7"/></g>
<rect x="864.4" y="454.9" width="57.5" height="16.9" rx="5" fill="#94a3b8" stroke="#111827" opacity="0.86" transform="rotate(0.6 864.4 454.9)"/>
<rect x="809.6" y="446.4" width="62.9" height="12.5" rx="5" fill="#64748b" stroke="#111827" opacity="0.62" transform="rotate(-3.1 809.6 446.4)"/>
<rect x="759.1" y="419.0" width="63.9" height="17.9" rx="5" fill="#facc15" stroke="#111827" opacity="0.62" transform="rotate(6.0 759.1 419.0)"/>
<rect x="889.6" y="521.7" width="40.8" height="14.1" rx="5" fill="#a3a3a3" stroke="#111827" opacity="0.62" transform="rotate(-3.7 889.6 521.7)"/>
<rect x="896.8" y="533.6" width="45.6" height="14.7" rx="5" fill="#f97316" stroke="#111827" opacity="0.62" transform="rotate(9.7 896.8 533.6)"/>
<rect x="811.6" y="461.7" width="31.2" height="19.9" rx="5" fill="#475569" stroke="#111827" opacity="0.86" transform="rotate(16.0 811.6 461.7)"/>
<rect x="925.0" y="537.2" width="53.8" height="24.1" rx="5" fill="#94a3b8" stroke="#111827" opacity="0.62" transform="rotate(8.1 925.0 537.2)"/>
<rect x="862.6" y="495.4" width="54.6" height="12.4" rx="5" fill="#64748b" stroke="#111827" opacity="0.62" transform="rotate(24.5 862.6 495.4)"/>
<rect x="768.9" y="390.6" width="28.3" height="18.2" rx="5" fill="#facc15" stroke="#111827" opacity="0.62" transform="rotate(-24.1 768.9 390.6)"/>
<rect x="827.3" y="452.5" width="49.5" height="21.2" rx="5" fill="#a3a3a3" stroke="#111827" opacity="0.62" transform="rotate(24.4 827.3 452.5)"/>
<rect x="896.5" y="462.2" width="58.7" height="26.8" rx="5" fill="#f97316" stroke="#111827" opacity="0.86" transform="rotate(26.2 896.5 462.2)"/>
<rect x="1033.9" y="607.2" width="30.6" height="16.7" rx="5" fill="#475569" stroke="#111827" opacity="0.62" transform="rotate(26.4 1033.9 607.2)"/>
<rect x="793.2" y="517.5" width="60.2" height="13.3" rx="5" fill="#94a3b8" stroke="#111827" opacity="0.62" transform="rotate(-19.6 793.2 517.5)"/>
<rect x="1092.4" y="626.5" width="58.5" height="27.4" rx="5" fill="#64748b" stroke="#111827" opacity="0.62" transform="rotate(14.5 1092.4 626.5)"/>
<rect x="726.3" y="356.0" width="48.4" height="31.2" rx="5" fill="#facc15" stroke="#111827" opacity="0.62" transform="rotate(25.1 726.3 356.0)"/>
<rect x="794.3" y="379.7" width="29.3" height="20.8" rx="5" fill="#a3a3a3" stroke="#111827" opacity="0.86" transform="rotate(-15.1 794.3 379.7)"/>
<rect x="667.0" y="363.4" width="43.0" height="13.0" rx="5" fill="#f97316" stroke="#111827" opacity="0.62" transform="rotate(-21.7 667.0 363.4)"/>
<rect x="684.3" y="345.4" width="54.9" height="30.8" rx="5" fill="#475569" stroke="#111827" opacity="0.62" transform="rotate(-16.7 684.3 345.4)"/>
<rect x="985.4" y="576.9" width="32.2" height="18.0" rx="5" fill="#94a3b8" stroke="#111827" opacity="0.62" transform="rotate(21.4 985.4 576.9)"/>
<rect x="982.6" y="537.4" width="55.3" height="23.8" rx="5" fill="#64748b" stroke="#111827" opacity="0.62" transform="rotate(-10.4 982.6 537.4)"/>
<rect x="986.0" y="563.2" width="24.3" height="17.7" rx="5" fill="#facc15" stroke="#111827" opacity="0.86" transform="rotate(-11.5 986.0 563.2)"/>
<rect x="965.1" y="481.0" width="50.3" height="20.4" rx="5" fill="#a3a3a3" stroke="#111827" opacity="0.62" transform="rotate(-6.8 965.1 481.0)"/>
<rect x="944.8" y="565.7" width="49.6" height="19.3" rx="5" fill="#f97316" stroke="#111827" opacity="0.62" transform="rotate(-19.6 944.8 565.7)"/>
<rect x="819.5" y="458.2" width="49.1" height="34.0" rx="5" fill="#475569" stroke="#111827" opacity="0.62" transform="rotate(-9.8 819.5 458.2)"/>
<path d="M745.0 409.9 l90.0 -155.9 q46 -30 164.4 -73.2 z" fill="#60a5fa" opacity="0.10" filter="url(#glow)"/>
<circle cx="745.0" cy="409.9" r="74" fill="none" stroke="#60a5fa" stroke-width="2" opacity="0.20" stroke-dasharray="6 10"/>
<path d="M1025.9 524.3 l174.7 43.5 q46 -30 115.7 137.9 z" fill="#34d399" opacity="0.10" filter="url(#glow)"/>
<circle cx="1025.9" cy="524.3" r="74" fill="none" stroke="#34d399" stroke-width="2" opacity="0.20" stroke-dasharray="6 10"/>
<g filter="url(#softShadow)"><path d="M896.0 496.9 L988.0 450.9" stroke="#fb923c" stroke-width="10" stroke-linecap="round"/><rect x="974.0" y="437.9" width="38" height="22" rx="4" fill="#fdba74" stroke="#9a3412" stroke-width="3"/></g>
<ellipse cx="745.0" cy="451.9" rx="72" ry="34" fill="#020617" opacity="0.42"/>
<g filter="url(#softShadow)"><ellipse cx="745.0" cy="409.9" rx="58" ry="38" fill="#3b82f6" stroke="#93c5fd" stroke-width="4"/><ellipse cx="737.0" cy="399.9" rx="28" ry="13" fill="#93c5fd" opacity="0.38"/><circle cx="775.0" cy="397.9" r="10" fill="#e0f2fe"/><text x="745.0" y="417.9" font-family="Inter,Arial,sans-serif" font-size="18" font-weight="700" text-anchor="middle" fill="#f8fafc">RA</text></g>
<path d="M763.0 413.9 Q789.3 410.6 799.3 438.6" stroke="#cbd5e1" stroke-width="14" stroke-linecap="round" fill="none" filter="url(#softShadow)"/>
<path d="M799.3 438.6 Q811.7 448.1 823.7 458.1" stroke="#94a3b8" stroke-width="11" stroke-linecap="round" fill="none"/>
<path d="M809.7 449.1 L838.7 468.1 M816.7 470.1 L843.7 451.1" stroke="#f8fafc" stroke-width="4" stroke-linecap="round"/>
<ellipse cx="1025.9" cy="566.3" rx="72" ry="34" fill="#020617" opacity="0.42"/>
<g filter="url(#softShadow)"><ellipse cx="1025.9" cy="524.3" rx="58" ry="38" fill="#22c55e" stroke="#86efac" stroke-width="4"/><ellipse cx="1017.9" cy="514.3" rx="28" ry="13" fill="#86efac" opacity="0.38"/><circle cx="1055.9" cy="512.3" r="10" fill="#e0f2fe"/><text x="1025.9" y="532.3" font-family="Inter,Arial,sans-serif" font-size="18" font-weight="700" text-anchor="middle" fill="#f8fafc">RB</text></g>
<path d="M1043.9 528.3 Q953.4 472.4 963.4 500.4" stroke="#cbd5e1" stroke-width="14" stroke-linecap="round" fill="none" filter="url(#softShadow)"/>
<path d="M963.4 500.4 Q921.9 473.3 933.9 483.3" stroke="#94a3b8" stroke-width="11" stroke-linecap="round" fill="none"/>
<path d="M919.9 474.3 L948.9 493.3 M926.9 495.3 L953.9 476.3" stroke="#f8fafc" stroke-width="4" stroke-linecap="round"/>
<path d="M620 645 C675 575, 735 540, 800 508 C874 470, 940 440, 1005 392" fill="none" stroke="#38bdf8" stroke-width="5" opacity="0.16"/>
<path d="M620 645 C675 575, 735 540, 800 508 C874 470, 940 440, 1005 392" fill="none" stroke="#67e8f9" stroke-width="3" opacity="0.72" stroke-dasharray="212.7 800" filter="url(#glow)"/>
<g filter="url(#softShadow)">
<rect x="1040" y="54" width="340" height="312" rx="18" fill="#0f172a" opacity="0.88" stroke="#334155"/>
<text x="1064" y="91" font-family="Inter,Arial,sans-serif" font-size="21" font-weight="700" fill="#f8fafc">Clutter clearing + tool retrieval</text>
<text x="1064" y="119" font-family="Inter,Arial,sans-serif" font-size="12" fill="#94a3b8">AURORA dual-rate synthetic telemetry</text>
<rect x="1064" y="145" width="112" height="28" rx="14" fill="#22c55e" opacity="0.23" stroke="#22c55e"/><text x="1120" y="164" font-family="Inter,Arial,sans-serif" font-size="12" font-weight="700" text-anchor="middle" fill="#22c55e">NOMINAL</text>
<text x="1064" y="206" font-family="Inter,Arial,sans-serif" font-size="13" fill="#cbd5e1">phase</text><text x="1360" y="206" font-family="Inter,Arial,sans-serif" font-size="13" text-anchor="end" fill="#f8fafc">RETRIEVE</text>
<text x="1064" y="238" font-family="Inter,Arial,sans-serif" font-size="13" fill="#cbd5e1">success estimate</text>
<rect x="1064" y="250" width="210" height="9" rx="5" fill="#1e293b"/>
<rect x="1064" y="250" width="132.1" height="9" rx="5" fill="#22c55e"/>
<text x="1064" y="286" font-family="Inter,Arial,sans-serif" font-size="13" fill="#cbd5e1">intent age</text>
<rect x="1064" y="298" width="210" height="9" rx="5" fill="#1e293b"/>
<rect x="1064" y="298" width="87.3" height="9" rx="5" fill="#f59e0b"/>
<text x="1064" y="334" font-family="Inter,Arial,sans-serif" font-size="13" fill="#cbd5e1">drawer open</text>
<rect x="1064" y="346" width="210" height="9" rx="5" fill="#1e293b"/>
<rect x="1064" y="346" width="0.0" height="9" rx="5" fill="#38bdf8"/>
<text x="1370" y="334" font-family="Inter,Arial,sans-serif" font-size="13" text-anchor="end" fill="#f8fafc">t=14.7s</text>
</g>
<g filter="url(#softShadow)">
<rect x="1040" y="398" width="340" height="226" rx="18" fill="#020617" opacity="0.94" stroke="#334155"/>
<text x="1064" y="431" font-family="Inter,Arial,sans-serif" font-size="15" font-weight="700" fill="#e5e7eb">wrist RGB-D synthetic feed</text>
<rect x="1064" y="452" width="292" height="134" rx="10" fill="#111827" stroke="#475569"/>
<path d="M1086 584 C1128 505, 1256 506, 1328 584" fill="#64748b" opacity="0.68"/>
<line x1="1130" y1="578" x2="1184" y2="512" stroke="#e5e7eb" stroke-width="9" stroke-linecap="round"/>
<line x1="1262" y1="512" x2="1316" y2="578" stroke="#e5e7eb" stroke-width="9" stroke-linecap="round"/>
<path d="M1110 517.8 L1228 481.8" stroke="#fb923c" stroke-width="12" stroke-linecap="round"/>
<circle cx="1334" cy="430" r="6" fill="#22c55e" filter="url(#glow)"/>
<text x="1064" y="610" font-family="Inter,Arial,sans-serif" font-size="11" fill="#94a3b8">depth confidence, gripper aperture, contact envelope</text>
</g>
<g filter="url(#softShadow)">
<rect x="1040" y="650" width="340" height="174" rx="18" fill="#0f172a" opacity="0.88" stroke="#334155"/>
<text x="1064" y="676" font-family="Inter,Arial,sans-serif" font-size="15" font-weight="700" fill="#e5e7eb">local occupancy crop</text>
<rect x="1064" y="676" width="18" height="16" rx="3" fill="#0e7490" opacity="0.41"/>
<rect x="1087" y="676" width="18" height="16" rx="3" fill="#0891b2" opacity="0.47"/>
<rect x="1110" y="676" width="18" height="16" rx="3" fill="#22d3ee" opacity="0.53"/>
<rect x="1133" y="676" width="18" height="16" rx="3" fill="#67e8f9" opacity="0.59"/>
<rect x="1156" y="676" width="18" height="16" rx="3" fill="#082f49" opacity="0.65"/>
<rect x="1179" y="676" width="18" height="16" rx="3" fill="#0e7490" opacity="0.71"/>
<rect x="1202" y="676" width="18" height="16" rx="3" fill="#0891b2" opacity="0.77"/>
<rect x="1225" y="676" width="18" height="16" rx="3" fill="#22d3ee" opacity="0.83"/>
<rect x="1064" y="697" width="18" height="16" rx="3" fill="#082f49" opacity="0.35"/>
<rect x="1087" y="697" width="18" height="16" rx="3" fill="#0e7490" opacity="0.41"/>
<rect x="1110" y="697" width="18" height="16" rx="3" fill="#0891b2" opacity="0.47"/>
<rect x="1133" y="697" width="18" height="16" rx="3" fill="#22d3ee" opacity="0.53"/>
<rect x="1156" y="697" width="18" height="16" rx="3" fill="#67e8f9" opacity="0.59"/>
<rect x="1179" y="697" width="18" height="16" rx="3" fill="#082f49" opacity="0.65"/>
<rect x="1202" y="697" width="18" height="16" rx="3" fill="#0e7490" opacity="0.71"/>
<rect x="1225" y="697" width="18" height="16" rx="3" fill="#0891b2" opacity="0.77"/>
<rect x="1064" y="718" width="18" height="16" rx="3" fill="#22d3ee" opacity="0.83"/>
<rect x="1087" y="718" width="18" height="16" rx="3" fill="#082f49" opacity="0.35"/>
<rect x="1110" y="718" width="18" height="16" rx="3" fill="#0e7490" opacity="0.41"/>
<rect x="1133" y="718" width="18" height="16" rx="3" fill="#0891b2" opacity="0.47"/>
<rect x="1156" y="718" width="18" height="16" rx="3" fill="#22d3ee" opacity="0.53"/>
<rect x="1179" y="718" width="18" height="16" rx="3" fill="#67e8f9" opacity="0.59"/>
<rect x="1202" y="718" width="18" height="16" rx="3" fill="#082f49" opacity="0.65"/>
<rect x="1225" y="718" width="18" height="16" rx="3" fill="#0e7490" opacity="0.71"/>
<rect x="1064" y="739" width="18" height="16" rx="3" fill="#0891b2" opacity="0.77"/>
<rect x="1087" y="739" width="18" height="16" rx="3" fill="#22d3ee" opacity="0.83"/>
<rect x="1110" y="739" width="18" height="16" rx="3" fill="#082f49" opacity="0.35"/>
<rect x="1133" y="739" width="18" height="16" rx="3" fill="#0e7490" opacity="0.41"/>
<rect x="1156" y="739" width="18" height="16" rx="3" fill="#0891b2" opacity="0.47"/>
<rect x="1179" y="739" width="18" height="16" rx="3" fill="#22d3ee" opacity="0.53"/>
<rect x="1202" y="739" width="18" height="16" rx="3" fill="#67e8f9" opacity="0.59"/>
<rect x="1225" y="739" width="18" height="16" rx="3" fill="#082f49" opacity="0.65"/>
<rect x="1270" y="690" width="70" height="70" rx="35" fill="none" stroke="#f87171" stroke-width="2" stroke-dasharray="6 5"/>
<text x="1064" y="800" font-family="Inter,Arial,sans-serif" font-size="11" fill="#94a3b8">blue = free/observed · red ring = peer exclusion volume</text>
</g>
<rect x="0" y="0" width="1440" height="900" fill="url(#dust)" opacity="0.33"/>
<rect x="0" y="0" width="1440" height="900" fill="none" stroke="#1e293b" stroke-width="18" opacity="0.55"/>
</svg>