<svg xmlns="http://www.w3.org/2000/svg" width="1120" height="720" viewBox="0 0 1120 720">
<style>text{font-family:Inter,Arial,sans-serif}.title{font-size:24px;font-weight:700;fill:#111827}.label{font-size:14px;fill:#334155}.small{font-size:12px;fill:#64748b}.hud{font-size:13px;fill:#0f172a}.wall{fill:#e2e8f0;stroke:#475569;stroke-width:3}.floor{fill:#f8fafc}.zone{fill:#dbeafe;stroke:#2563eb;stroke-width:1;opacity:.55}.danger{fill:#fee2e2;stroke:#dc2626;stroke-width:1}.drawer{fill:#fef3c7;stroke:#92400e;stroke-width:2}.clutter{fill:#cbd5e1;stroke:#64748b;stroke-width:1}.tool{fill:#f97316;stroke:#9a3412;stroke-width:2}.robotA{fill:#2563eb;stroke:#1e3a8a;stroke-width:3}.robotB{fill:#16a34a;stroke:#14532d;stroke-width:3}.arm{stroke:#0f172a;stroke-width:6;stroke-linecap:round}.grip{stroke:#111827;stroke-width:3}</style>
<rect width="100%" height="100%" fill="#ffffff"/>
<text x="32.0" y="38.0" class="title" text-anchor="start">Clutter clearing + tool retrieval · simulated frame 04</text>
<text x="32.0" y="63.0" class="small" text-anchor="start">Synthetic AURORA simulator output, not real robot camera data</text>
<rect x="40" y="90" width="760" height="560" rx="8" class="floor" stroke="#94a3b8" stroke-width="2"/>
<rect x="70" y="128" width="700" height="36" class="wall"/>
<rect x="70" y="602" width="700" height="26" class="wall"/>
<rect x="70" y="128" width="30" height="500" class="wall"/>
<rect x="740" y="128" width="30" height="500" class="wall"/>
<rect x="118" y="196" width="176" height="82" rx="8" fill="#d1d5db" stroke="#64748b"/>
<rect x="570" y="190" width="150" height="245" rx="8" fill="#e5e7eb" stroke="#64748b"/>
<rect x="610.0" y="230" width="120.0" height="68" rx="4" class="drawer"/>
<rect x="360" y="330" width="128" height="82" rx="8" fill="#fde68a" stroke="#a16207"/>
<ellipse cx="430" cy="370" rx="155" ry="115" class="zone"/>
<circle cx="610" cy="370" r="92" class="danger" opacity=".35"/>
<rect x="390" y="350" width="38" height="18" rx="4" class="clutter" transform="rotate(20 390 350)"/>
<rect x="420" y="395" width="41" height="30" rx="4" class="clutter" transform="rotate(-15 420 395)"/>
<rect x="455" y="345" width="44" height="18" rx="4" class="clutter" transform="rotate(70 455 345)"/>
<rect x="500" y="383" width="47" height="30" rx="4" class="clutter" transform="rotate(35 500 383)"/>
<rect x="535" y="335" width="50" height="18" rx="4" class="clutter" transform="rotate(-30 535 335)"/>
<path d="M 628.5 402.5 L 701.5 369.5" class="tool" stroke-width="8" stroke-linecap="round"/><rect x="688.5" y="359.5" width="28" height="18" rx="3" class="tool"/>
<circle cx="323.1" cy="286.6" r="34" class="robotA"/>
<line x1="323.1" y1="286.6" x2="366.3" y2="331.1" class="arm"/>
<line x1="356.3" y1="322.1" x2="376.3" y2="340.1" class="grip"/>
<text x="323.1" y="291.6" class="label" text-anchor="middle">RA</text>
<circle cx="738.8" cy="480.4" r="34" class="robotB"/>
<line x1="738.8" y1="480.4" x2="689.1" y2="443.3" class="arm"/>
<line x1="679.1" y1="434.3" x2="699.1" y2="452.3" class="grip"/>
<text x="738.8" y="485.4" class="label" text-anchor="middle">RB</text>
<rect x="820" y="90" width="260" height="190" rx="8" fill="#f8fafc" stroke="#94a3b8"/>
<text x="950.0" y="120.0" class="label" text-anchor="middle">Runtime telemetry</text>
<text x="840.0" y="152.0" class="small" text-anchor="start">phase</text>
<text x="1060.0" y="152.0" class="hud" text-anchor="end">CLEAR_LEFT</text>
<text x="840.0" y="177.0" class="small" text-anchor="start">intent age</text>
<text x="1060.0" y="177.0" class="hud" text-anchor="end">200 ms</text>
<text x="840.0" y="202.0" class="small" text-anchor="start">drawer open</text>
<text x="1060.0" y="202.0" class="hud" text-anchor="end">0.00</text>
<text x="840.0" y="227.0" class="small" text-anchor="start">success est.</text>
<text x="1060.0" y="227.0" class="hud" text-anchor="end">0.36</text>
<text x="840.0" y="252.0" class="small" text-anchor="start">safety event</text>
<text x="1060.0" y="252.0" class="hud" text-anchor="end">PEER_EXCLUSION_CLIP</text>
<rect x="820" y="310" width="260" height="260" rx="8" fill="#111827" stroke="#475569" stroke-width="2"/>
<text x="950.0" y="338.0" class="small" text-anchor="middle">synthetic wrist view</text>
<rect x="850" y="365" width="200" height="120" rx="6" fill="#374151"/>
<path d="M 875 530 C 910 455, 995 455, 1030 530" fill="#94a3b8" stroke="#e5e7eb" stroke-width="2"/>
<line x1="905" y1="505" x2="940" y2="452" stroke="#e5e7eb" stroke-width="8" stroke-linecap="round"/>
<line x1="995" y1="452" x2="1030" y2="505" stroke="#e5e7eb" stroke-width="8" stroke-linecap="round"/>
<path d="M 905 435 L 990 397" stroke="#f97316" stroke-width="8" stroke-linecap="round"/>
</svg>