<svg xmlns="http://www.w3.org/2000/svg" width="1440" height="900" viewBox="0 0 1440 900">

<defs>
  <linearGradient id="bg" x1="0" y1="0" x2="1" y2="1">
    <stop offset="0" stop-color="#07111f"/>
    <stop offset="0.55" stop-color="#111827"/>
    <stop offset="1" stop-color="#172033"/>
  </linearGradient>
  <radialGradient id="vignette" cx="50%" cy="46%" r="70%">
    <stop offset="0" stop-color="#ffffff" stop-opacity="0.07"/>
    <stop offset="0.58" stop-color="#0f172a" stop-opacity="0"/>
    <stop offset="1" stop-color="#020617" stop-opacity="0.82"/>
  </radialGradient>
  <linearGradient id="floorGrad" x1="0" y1="0" x2="1" y2="1">
    <stop offset="0" stop-color="#475569"/>
    <stop offset="0.45" stop-color="#334155"/>
    <stop offset="1" stop-color="#111827"/>
  </linearGradient>
  <linearGradient id="wallLeft" x1="0" y1="0" x2="1" y2="1">
    <stop offset="0" stop-color="#1f2937"/>
    <stop offset="1" stop-color="#0f172a"/>
  </linearGradient>
  <linearGradient id="wallRight" x1="0" y1="0" x2="1" y2="1">
    <stop offset="0" stop-color="#273449"/>
    <stop offset="1" stop-color="#111827"/>
  </linearGradient>
  <radialGradient id="lamp" cx="50%" cy="50%" r="50%">
    <stop offset="0" stop-color="#fef3c7" stop-opacity="0.60"/>
    <stop offset="1" stop-color="#fef3c7" stop-opacity="0"/>
  </radialGradient>
  <pattern id="dust" width="86" height="86" patternUnits="userSpaceOnUse">
    <circle cx="9" cy="18" r="1.1" fill="#e5e7eb" opacity="0.22"/>
    <circle cx="44" cy="51" r="1.5" fill="#f8fafc" opacity="0.18"/>
    <circle cx="75" cy="27" r="0.9" fill="#cbd5e1" opacity="0.18"/>
    <circle cx="23" cy="78" r="0.7" fill="#fef3c7" opacity="0.16"/>
  </pattern>
  <filter id="softShadow" x="-30%" y="-30%" width="160%" height="160%">
    <feDropShadow dx="0" dy="16" stdDeviation="12" flood-color="#020617" flood-opacity="0.45"/>
  </filter>
  <filter id="glow" x="-50%" y="-50%" width="200%" height="200%">
    <feGaussianBlur stdDeviation="5" result="coloredBlur"/>
    <feMerge>
      <feMergeNode in="coloredBlur"/>
      <feMergeNode in="SourceGraphic"/>
    </feMerge>
  </filter>
</defs>

<rect width="1440" height="900" fill="url(#bg)"/>
<rect width="1440" height="900" fill="url(#vignette)" opacity="0.95"/>
<g filter="url(#softShadow)">
<path d="M150 650 L590 290 L1185 495 L745 820 Z" fill="url(#floorGrad)" stroke="#4b5563" stroke-width="2"/>
<path d="M150 650 L150 272 L590 80 L590 290 Z" fill="url(#wallLeft)" stroke="#334155" stroke-width="2"/>
<path d="M590 80 L1185 285 L1185 495 L590 290 Z" fill="url(#wallRight)" stroke="#334155" stroke-width="2"/>
</g>
<line x1="166.9" y1="99.1" x2="486.1" y2="484.8" stroke="#64748b" stroke-width="1" opacity="0.18"/>
<line x1="234.0" y1="122.3" x2="553.2" y2="508.0" stroke="#64748b" stroke-width="1" opacity="0.18"/>
<line x1="301.0" y1="145.6" x2="620.2" y2="531.3" stroke="#64748b" stroke-width="1" opacity="0.18"/>
<line x1="368.1" y1="168.8" x2="687.3" y2="554.5" stroke="#64748b" stroke-width="1" opacity="0.18"/>
<line x1="435.2" y1="192.0" x2="754.4" y2="577.7" stroke="#64748b" stroke-width="1" opacity="0.18"/>
<line x1="502.3" y1="215.2" x2="821.5" y2="600.9" stroke="#64748b" stroke-width="1" opacity="0.18"/>
<line x1="569.4" y1="238.4" x2="888.6" y2="624.1" stroke="#64748b" stroke-width="1" opacity="0.18"/>
<line x1="636.4" y1="261.7" x2="955.6" y2="647.4" stroke="#64748b" stroke-width="1" opacity="0.18"/>
<line x1="703.5" y1="284.9" x2="1022.7" y2="670.6" stroke="#64748b" stroke-width="1" opacity="0.18"/>
<line x1="770.6" y1="308.1" x2="1089.8" y2="693.8" stroke="#64748b" stroke-width="1" opacity="0.18"/>
<line x1="837.7" y1="331.3" x2="1156.9" y2="717.0" stroke="#64748b" stroke-width="1" opacity="0.18"/>
<line x1="904.8" y1="354.5" x2="1224.0" y2="740.2" stroke="#64748b" stroke-width="1" opacity="0.18"/>
<line x1="971.8" y1="377.8" x2="1291.0" y2="763.5" stroke="#64748b" stroke-width="1" opacity="0.18"/>
<line x1="459.8" y1="215.0" x2="1068.2" y2="425.6" stroke="#94a3b8" stroke-width="1" opacity="0.14"/>
<line x1="497.2" y1="260.2" x2="1105.6" y2="470.8" stroke="#94a3b8" stroke-width="1" opacity="0.14"/>
<line x1="534.7" y1="305.5" x2="1143.1" y2="516.1" stroke="#94a3b8" stroke-width="1" opacity="0.14"/>
<line x1="572.1" y1="350.7" x2="1180.5" y2="561.3" stroke="#94a3b8" stroke-width="1" opacity="0.14"/>
<line x1="609.6" y1="396.0" x2="1218.0" y2="606.6" stroke="#94a3b8" stroke-width="1" opacity="0.14"/>
<line x1="647.0" y1="441.2" x2="1255.4" y2="651.8" stroke="#94a3b8" stroke-width="1" opacity="0.14"/>
<line x1="684.4" y1="486.4" x2="1292.8" y2="697.0" stroke="#94a3b8" stroke-width="1" opacity="0.14"/>
<line x1="721.9" y1="531.7" x2="1330.3" y2="742.3" stroke="#94a3b8" stroke-width="1" opacity="0.14"/>
<line x1="759.3" y1="576.9" x2="1367.7" y2="787.5" stroke="#94a3b8" stroke-width="1" opacity="0.14"/>
<ellipse cx="965" cy="318" rx="290" ry="190" fill="url(#lamp)" opacity="0.55"/>
<g filter="url(#softShadow)"><path d="M533.6 257.1 l160 52 l-92 76 l-160 -52z" fill="#64748b" stroke="#cbd5e1" opacity="0.92"/><path d="M543.6 283.1 l126 41 l-60 48 l-125 -42z" fill="#94a3b8" opacity="0.35"/></g>
<g filter="url(#softShadow)"><path d="M790.4 432.9 l150 52 l-105 86 l-150 -52z" fill="#92400e" stroke="#fbbf24" opacity="0.86"/><path d="M800.4 449.9 l128 44 l-82 66 l-128 -44z" fill="#b45309" opacity="0.65"/></g>
<g filter="url(#softShadow)"><path d="M940.4 412.4 l190 64 l-74 58 l-190 -64z" fill="#f59e0b" stroke="#fef3c7" stroke-width="2"/><path d="M984.4 462.4 l86 29 l-16 15 l-86 -29z" fill="#111827" opacity="0.72"/><circle cx="1053.4" cy="481.4" r="8" fill="#fef3c7"/></g>
<rect x="870.5" y="489.3" width="60.8" height="21.2" rx="5" fill="#94a3b8" stroke="#111827" opacity="0.86" transform="rotate(0.4 870.5 489.3)"/>
<rect x="849.0" y="425.2" width="43.5" height="25.1" rx="5" fill="#64748b" stroke="#111827" opacity="0.62" transform="rotate(16.4 849.0 425.2)"/>
<rect x="708.2" y="394.4" width="25.8" height="29.4" rx="5" fill="#facc15" stroke="#111827" opacity="0.62" transform="rotate(10.8 708.2 394.4)"/>
<rect x="810.0" y="532.2" width="62.5" height="25.7" rx="5" fill="#a3a3a3" stroke="#111827" opacity="0.62" transform="rotate(6.5 810.0 532.2)"/>
<rect x="678.4" y="340.5" width="44.2" height="11.4" rx="5" fill="#f97316" stroke="#111827" opacity="0.62" transform="rotate(-17.3 678.4 340.5)"/>
<rect x="708.7" y="353.3" width="41.5" height="20.6" rx="5" fill="#475569" stroke="#111827" opacity="0.86" transform="rotate(19.2 708.7 353.3)"/>
<rect x="906.4" y="513.9" width="43.0" height="25.9" rx="5" fill="#94a3b8" stroke="#111827" opacity="0.62" transform="rotate(-2.4 906.4 513.9)"/>
<rect x="890.1" y="562.2" width="63.8" height="30.2" rx="5" fill="#64748b" stroke="#111827" opacity="0.62" transform="rotate(11.6 890.1 562.2)"/>
<rect x="767.7" y="403.9" width="34.1" height="11.7" rx="5" fill="#facc15" stroke="#111827" opacity="0.62" transform="rotate(14.9 767.7 403.9)"/>
<rect x="903.7" y="544.1" width="38.2" height="33.0" rx="5" fill="#a3a3a3" stroke="#111827" opacity="0.62" transform="rotate(19.4 903.7 544.1)"/>
<rect x="661.1" y="364.0" width="60.2" height="21.3" rx="5" fill="#f97316" stroke="#111827" opacity="0.86" transform="rotate(26.9 661.1 364.0)"/>
<rect x="767.2" y="380.0" width="48.4" height="28.7" rx="5" fill="#475569" stroke="#111827" opacity="0.62" transform="rotate(-12.9 767.2 380.0)"/>
<rect x="711.0" y="399.8" width="62.5" height="28.2" rx="5" fill="#94a3b8" stroke="#111827" opacity="0.62" transform="rotate(-21.4 711.0 399.8)"/>
<rect x="722.6" y="368.8" width="24.5" height="29.1" rx="5" fill="#64748b" stroke="#111827" opacity="0.62" transform="rotate(-18.1 722.6 368.8)"/>
<rect x="885.8" y="477.6" width="30.0" height="27.6" rx="5" fill="#facc15" stroke="#111827" opacity="0.62" transform="rotate(-20.7 885.8 477.6)"/>
<rect x="855.5" y="417.2" width="39.7" height="15.1" rx="5" fill="#a3a3a3" stroke="#111827" opacity="0.86" transform="rotate(-12.9 855.5 417.2)"/>
<rect x="1083.0" y="599.7" width="34.8" height="31.2" rx="5" fill="#f97316" stroke="#111827" opacity="0.62" transform="rotate(-16.2 1083.0 599.7)"/>
<rect x="903.1" y="545.1" width="49.0" height="12.4" rx="5" fill="#475569" stroke="#111827" opacity="0.62" transform="rotate(27.4 903.1 545.1)"/>
<rect x="739.3" y="398.4" width="54.5" height="17.9" rx="5" fill="#94a3b8" stroke="#111827" opacity="0.62" transform="rotate(-11.4 739.3 398.4)"/>
<rect x="664.0" y="346.9" width="46.5" height="15.8" rx="5" fill="#64748b" stroke="#111827" opacity="0.62" transform="rotate(5.7 664.0 346.9)"/>
<rect x="825.4" y="457.6" width="62.3" height="21.6" rx="5" fill="#facc15" stroke="#111827" opacity="0.86" transform="rotate(4.2 825.4 457.6)"/>
<rect x="940.1" y="456.5" width="28.5" height="31.8" rx="5" fill="#a3a3a3" stroke="#111827" opacity="0.62" transform="rotate(17.8 940.1 456.5)"/>
<rect x="739.2" y="388.0" width="53.1" height="32.6" rx="5" fill="#f97316" stroke="#111827" opacity="0.62" transform="rotate(-17.0 739.2 388.0)"/>
<rect x="1090.0" y="614.0" width="47.3" height="20.1" rx="5" fill="#475569" stroke="#111827" opacity="0.62" transform="rotate(-22.2 1090.0 614.0)"/>
<path d="M847.3 449.7 l90.0 -155.9 q46 -30 164.4 -73.2 z" fill="#60a5fa" opacity="0.10" filter="url(#glow)"/>
<circle cx="847.3" cy="449.7" r="74" fill="none" stroke="#60a5fa" stroke-width="2" opacity="0.20" stroke-dasharray="6 10"/>
<path d="M992.7 493.9 l174.7 43.5 q46 -30 115.7 137.9 z" fill="#34d399" opacity="0.10" filter="url(#glow)"/>
<circle cx="992.7" cy="493.9" r="74" fill="none" stroke="#34d399" stroke-width="2" opacity="0.20" stroke-dasharray="6 10"/>
<g filter="url(#softShadow)"><rect x="946.9" y="496.0" width="88" height="18" rx="9" fill="#fb923c" stroke="#fed7aa" stroke-width="3"/><circle cx="1026.9" cy="505.0" r="20" fill="#fde68a" stroke="#fb923c" stroke-width="3" filter="url(#glow)"/></g>
<ellipse cx="847.3" cy="491.7" rx="72" ry="34" fill="#020617" opacity="0.42"/>
<g filter="url(#softShadow)"><ellipse cx="847.3" cy="449.7" rx="58" ry="38" fill="#3b82f6" stroke="#93c5fd" stroke-width="4"/><ellipse cx="839.3" cy="439.7" rx="28" ry="13" fill="#93c5fd" opacity="0.38"/><circle cx="877.3" cy="437.7" r="10" fill="#e0f2fe"/><text x="847.3" y="457.7" font-family="Inter,Arial,sans-serif" font-size="18" font-weight="700" text-anchor="middle" fill="#f8fafc">RA</text></g>
<path d="M865.3 453.7 Q914.9 425.7 924.9 453.7" stroke="#cbd5e1" stroke-width="14" stroke-linecap="round" fill="none" filter="url(#softShadow)"/>
<path d="M924.9 453.7 Q953.6 449.6 965.6 459.6" stroke="#94a3b8" stroke-width="11" stroke-linecap="round" fill="none"/>
<path d="M951.6 450.6 L980.6 469.6 M958.6 471.6 L985.6 452.6" stroke="#f8fafc" stroke-width="4" stroke-linecap="round"/>
<ellipse cx="992.7" cy="535.9" rx="72" ry="34" fill="#020617" opacity="0.42"/>
<g filter="url(#softShadow)"><ellipse cx="992.7" cy="493.9" rx="58" ry="38" fill="#22c55e" stroke="#86efac" stroke-width="4"/><ellipse cx="984.7" cy="483.9" rx="28" ry="13" fill="#86efac" opacity="0.38"/><circle cx="1022.7" cy="481.9" r="10" fill="#e0f2fe"/><text x="992.7" y="501.9" font-family="Inter,Arial,sans-serif" font-size="18" font-weight="700" text-anchor="middle" fill="#f8fafc">RB</text></g>
<path d="M1010.7 497.9 Q905.5 471.6 915.5 499.6" stroke="#cbd5e1" stroke-width="14" stroke-linecap="round" fill="none" filter="url(#softShadow)"/>
<path d="M915.5 499.6 Q861.5 489.4 873.5 499.4" stroke="#94a3b8" stroke-width="11" stroke-linecap="round" fill="none"/>
<path d="M859.5 490.4 L888.5 509.4 M866.5 511.4 L893.5 492.4" stroke="#f8fafc" stroke-width="4" stroke-linecap="round"/>
<path d="M606 675 C652 610, 718 575, 775 548 C845 515, 900 480, 955 430" fill="none" stroke="#38bdf8" stroke-width="5" opacity="0.16"/>
<path d="M606 675 C652 610, 718 575, 775 548 C845 515, 900 480, 955 430" fill="none" stroke="#67e8f9" stroke-width="3" opacity="0.72" stroke-dasharray="260.0 800" filter="url(#glow)"/>
<g filter="url(#softShadow)">
<rect x="1040" y="54" width="340" height="312" rx="18" fill="#0f172a" opacity="0.88" stroke="#334155"/>
<text x="1064" y="91" font-family="Inter,Arial,sans-serif" font-size="21" font-weight="700" fill="#f8fafc">Collaborative handoff</text>
<text x="1064" y="119" font-family="Inter,Arial,sans-serif" font-size="12" fill="#94a3b8">AURORA dual-rate synthetic telemetry</text>
<rect x="1064" y="145" width="112" height="28" rx="14" fill="#22c55e" opacity="0.23" stroke="#22c55e"/><text x="1120" y="164" font-family="Inter,Arial,sans-serif" font-size="12" font-weight="700" text-anchor="middle" fill="#22c55e">NOMINAL</text>
<text x="1064" y="206" font-family="Inter,Arial,sans-serif" font-size="13" fill="#cbd5e1">phase</text><text x="1360" y="206" font-family="Inter,Arial,sans-serif" font-size="13" text-anchor="end" fill="#f8fafc">RETREAT</text>
<text x="1064" y="238" font-family="Inter,Arial,sans-serif" font-size="13" fill="#cbd5e1">success estimate</text>
<rect x="1064" y="250" width="210" height="9" rx="5" fill="#1e293b"/>
<rect x="1064" y="250" width="168.0" height="9" rx="5" fill="#22c55e"/>
<text x="1064" y="286" font-family="Inter,Arial,sans-serif" font-size="13" fill="#cbd5e1">intent age</text>
<rect x="1064" y="298" width="210" height="9" rx="5" fill="#1e293b"/>
<rect x="1064" y="298" width="67.3" height="9" rx="5" fill="#f59e0b"/>
<text x="1064" y="334" font-family="Inter,Arial,sans-serif" font-size="13" fill="#cbd5e1">drawer open</text>
<rect x="1064" y="346" width="210" height="9" rx="5" fill="#1e293b"/>
<rect x="1064" y="346" width="0.0" height="9" rx="5" fill="#38bdf8"/>
<text x="1370" y="334" font-family="Inter,Arial,sans-serif" font-size="13" text-anchor="end" fill="#f8fafc">t=18.0s</text>
</g>
<g filter="url(#softShadow)">
<rect x="1040" y="398" width="340" height="226" rx="18" fill="#020617" opacity="0.94" stroke="#334155"/>
<text x="1064" y="431" font-family="Inter,Arial,sans-serif" font-size="15" font-weight="700" fill="#e5e7eb">wrist RGB-D synthetic feed</text>
<rect x="1064" y="452" width="292" height="134" rx="10" fill="#111827" stroke="#475569"/>
<path d="M1086 584 C1128 505, 1256 506, 1328 584" fill="#64748b" opacity="0.68"/>
<line x1="1130" y1="578" x2="1184" y2="512" stroke="#e5e7eb" stroke-width="9" stroke-linecap="round"/>
<line x1="1262" y1="512" x2="1316" y2="578" stroke="#e5e7eb" stroke-width="9" stroke-linecap="round"/>
<path d="M1110 509.6 L1228 473.6" stroke="#fb923c" stroke-width="12" stroke-linecap="round"/>
<circle cx="1334" cy="430" r="6" fill="#22c55e" filter="url(#glow)"/>
<text x="1064" y="610" font-family="Inter,Arial,sans-serif" font-size="11" fill="#94a3b8">depth confidence, gripper aperture, contact envelope</text>
</g>
<g filter="url(#softShadow)">
<rect x="1040" y="650" width="340" height="174" rx="18" fill="#0f172a" opacity="0.88" stroke="#334155"/>
<text x="1064" y="676" font-family="Inter,Arial,sans-serif" font-size="15" font-weight="700" fill="#e5e7eb">local occupancy crop</text>
<rect x="1064" y="676" width="18" height="16" rx="3" fill="#22d3ee" opacity="0.53"/>
<rect x="1087" y="676" width="18" height="16" rx="3" fill="#67e8f9" opacity="0.59"/>
<rect x="1110" y="676" width="18" height="16" rx="3" fill="#082f49" opacity="0.65"/>
<rect x="1133" y="676" width="18" height="16" rx="3" fill="#0e7490" opacity="0.71"/>
<rect x="1156" y="676" width="18" height="16" rx="3" fill="#0891b2" opacity="0.77"/>
<rect x="1179" y="676" width="18" height="16" rx="3" fill="#22d3ee" opacity="0.83"/>
<rect x="1202" y="676" width="18" height="16" rx="3" fill="#082f49" opacity="0.35"/>
<rect x="1225" y="676" width="18" height="16" rx="3" fill="#0e7490" opacity="0.41"/>
<rect x="1064" y="697" width="18" height="16" rx="3" fill="#0891b2" opacity="0.47"/>
<rect x="1087" y="697" width="18" height="16" rx="3" fill="#22d3ee" opacity="0.53"/>
<rect x="1110" y="697" width="18" height="16" rx="3" fill="#67e8f9" opacity="0.59"/>
<rect x="1133" y="697" width="18" height="16" rx="3" fill="#082f49" opacity="0.65"/>
<rect x="1156" y="697" width="18" height="16" rx="3" fill="#0e7490" opacity="0.71"/>
<rect x="1179" y="697" width="18" height="16" rx="3" fill="#0891b2" opacity="0.77"/>
<rect x="1202" y="697" width="18" height="16" rx="3" fill="#22d3ee" opacity="0.83"/>
<rect x="1225" y="697" width="18" height="16" rx="3" fill="#082f49" opacity="0.35"/>
<rect x="1064" y="718" width="18" height="16" rx="3" fill="#0e7490" opacity="0.41"/>
<rect x="1087" y="718" width="18" height="16" rx="3" fill="#0891b2" opacity="0.47"/>
<rect x="1110" y="718" width="18" height="16" rx="3" fill="#22d3ee" opacity="0.53"/>
<rect x="1133" y="718" width="18" height="16" rx="3" fill="#67e8f9" opacity="0.59"/>
<rect x="1156" y="718" width="18" height="16" rx="3" fill="#082f49" opacity="0.65"/>
<rect x="1179" y="718" width="18" height="16" rx="3" fill="#0e7490" opacity="0.71"/>
<rect x="1202" y="718" width="18" height="16" rx="3" fill="#0891b2" opacity="0.77"/>
<rect x="1225" y="718" width="18" height="16" rx="3" fill="#22d3ee" opacity="0.83"/>
<rect x="1064" y="739" width="18" height="16" rx="3" fill="#082f49" opacity="0.35"/>
<rect x="1087" y="739" width="18" height="16" rx="3" fill="#0e7490" opacity="0.41"/>
<rect x="1110" y="739" width="18" height="16" rx="3" fill="#0891b2" opacity="0.47"/>
<rect x="1133" y="739" width="18" height="16" rx="3" fill="#22d3ee" opacity="0.53"/>
<rect x="1156" y="739" width="18" height="16" rx="3" fill="#67e8f9" opacity="0.59"/>
<rect x="1179" y="739" width="18" height="16" rx="3" fill="#082f49" opacity="0.65"/>
<rect x="1202" y="739" width="18" height="16" rx="3" fill="#0e7490" opacity="0.71"/>
<rect x="1225" y="739" width="18" height="16" rx="3" fill="#0891b2" opacity="0.77"/>
<rect x="1270" y="690" width="70" height="70" rx="35" fill="none" stroke="#f87171" stroke-width="2" stroke-dasharray="6 5"/>
<text x="1064" y="800" font-family="Inter,Arial,sans-serif" font-size="11" fill="#94a3b8">blue = free/observed · red ring = peer exclusion volume</text>
</g>
<rect x="0" y="0" width="1440" height="900" fill="url(#dust)" opacity="0.33"/>
<rect x="0" y="0" width="1440" height="900" fill="none" stroke="#1e293b" stroke-width="18" opacity="0.55"/>
</svg>