<svg xmlns="http://www.w3.org/2000/svg" width="1440" height="900" viewBox="0 0 1440 900">

<defs>
  <linearGradient id="bg" x1="0" y1="0" x2="1" y2="1">
    <stop offset="0" stop-color="#07111f"/>
    <stop offset="0.55" stop-color="#111827"/>
    <stop offset="1" stop-color="#172033"/>
  </linearGradient>
  <radialGradient id="vignette" cx="50%" cy="46%" r="70%">
    <stop offset="0" stop-color="#ffffff" stop-opacity="0.07"/>
    <stop offset="0.58" stop-color="#0f172a" stop-opacity="0"/>
    <stop offset="1" stop-color="#020617" stop-opacity="0.82"/>
  </radialGradient>
  <linearGradient id="floorGrad" x1="0" y1="0" x2="1" y2="1">
    <stop offset="0" stop-color="#475569"/>
    <stop offset="0.45" stop-color="#334155"/>
    <stop offset="1" stop-color="#111827"/>
  </linearGradient>
  <linearGradient id="wallLeft" x1="0" y1="0" x2="1" y2="1">
    <stop offset="0" stop-color="#1f2937"/>
    <stop offset="1" stop-color="#0f172a"/>
  </linearGradient>
  <linearGradient id="wallRight" x1="0" y1="0" x2="1" y2="1">
    <stop offset="0" stop-color="#273449"/>
    <stop offset="1" stop-color="#111827"/>
  </linearGradient>
  <radialGradient id="lamp" cx="50%" cy="50%" r="50%">
    <stop offset="0" stop-color="#fef3c7" stop-opacity="0.60"/>
    <stop offset="1" stop-color="#fef3c7" stop-opacity="0"/>
  </radialGradient>
  <pattern id="dust" width="86" height="86" patternUnits="userSpaceOnUse">
    <circle cx="9" cy="18" r="1.1" fill="#e5e7eb" opacity="0.22"/>
    <circle cx="44" cy="51" r="1.5" fill="#f8fafc" opacity="0.18"/>
    <circle cx="75" cy="27" r="0.9" fill="#cbd5e1" opacity="0.18"/>
    <circle cx="23" cy="78" r="0.7" fill="#fef3c7" opacity="0.16"/>
  </pattern>
  <filter id="softShadow" x="-30%" y="-30%" width="160%" height="160%">
    <feDropShadow dx="0" dy="16" stdDeviation="12" flood-color="#020617" flood-opacity="0.45"/>
  </filter>
  <filter id="glow" x="-50%" y="-50%" width="200%" height="200%">
    <feGaussianBlur stdDeviation="5" result="coloredBlur"/>
    <feMerge>
      <feMergeNode in="coloredBlur"/>
      <feMergeNode in="SourceGraphic"/>
    </feMerge>
  </filter>
</defs>

<rect width="1440" height="900" fill="url(#bg)"/>
<rect width="1440" height="900" fill="url(#vignette)" opacity="0.95"/>
<g filter="url(#softShadow)">
<path d="M150 650 L590 290 L1185 495 L745 820 Z" fill="url(#floorGrad)" stroke="#4b5563" stroke-width="2"/>
<path d="M150 650 L150 272 L590 80 L590 290 Z" fill="url(#wallLeft)" stroke="#334155" stroke-width="2"/>
<path d="M590 80 L1185 285 L1185 495 L590 290 Z" fill="url(#wallRight)" stroke="#334155" stroke-width="2"/>
</g>
<line x1="166.9" y1="99.1" x2="486.1" y2="484.8" stroke="#64748b" stroke-width="1" opacity="0.18"/>
<line x1="234.0" y1="122.3" x2="553.2" y2="508.0" stroke="#64748b" stroke-width="1" opacity="0.18"/>
<line x1="301.0" y1="145.6" x2="620.2" y2="531.3" stroke="#64748b" stroke-width="1" opacity="0.18"/>
<line x1="368.1" y1="168.8" x2="687.3" y2="554.5" stroke="#64748b" stroke-width="1" opacity="0.18"/>
<line x1="435.2" y1="192.0" x2="754.4" y2="577.7" stroke="#64748b" stroke-width="1" opacity="0.18"/>
<line x1="502.3" y1="215.2" x2="821.5" y2="600.9" stroke="#64748b" stroke-width="1" opacity="0.18"/>
<line x1="569.4" y1="238.4" x2="888.6" y2="624.1" stroke="#64748b" stroke-width="1" opacity="0.18"/>
<line x1="636.4" y1="261.7" x2="955.6" y2="647.4" stroke="#64748b" stroke-width="1" opacity="0.18"/>
<line x1="703.5" y1="284.9" x2="1022.7" y2="670.6" stroke="#64748b" stroke-width="1" opacity="0.18"/>
<line x1="770.6" y1="308.1" x2="1089.8" y2="693.8" stroke="#64748b" stroke-width="1" opacity="0.18"/>
<line x1="837.7" y1="331.3" x2="1156.9" y2="717.0" stroke="#64748b" stroke-width="1" opacity="0.18"/>
<line x1="904.8" y1="354.5" x2="1224.0" y2="740.2" stroke="#64748b" stroke-width="1" opacity="0.18"/>
<line x1="971.8" y1="377.8" x2="1291.0" y2="763.5" stroke="#64748b" stroke-width="1" opacity="0.18"/>
<line x1="459.8" y1="215.0" x2="1068.2" y2="425.6" stroke="#94a3b8" stroke-width="1" opacity="0.14"/>
<line x1="497.2" y1="260.2" x2="1105.6" y2="470.8" stroke="#94a3b8" stroke-width="1" opacity="0.14"/>
<line x1="534.7" y1="305.5" x2="1143.1" y2="516.1" stroke="#94a3b8" stroke-width="1" opacity="0.14"/>
<line x1="572.1" y1="350.7" x2="1180.5" y2="561.3" stroke="#94a3b8" stroke-width="1" opacity="0.14"/>
<line x1="609.6" y1="396.0" x2="1218.0" y2="606.6" stroke="#94a3b8" stroke-width="1" opacity="0.14"/>
<line x1="647.0" y1="441.2" x2="1255.4" y2="651.8" stroke="#94a3b8" stroke-width="1" opacity="0.14"/>
<line x1="684.4" y1="486.4" x2="1292.8" y2="697.0" stroke="#94a3b8" stroke-width="1" opacity="0.14"/>
<line x1="721.9" y1="531.7" x2="1330.3" y2="742.3" stroke="#94a3b8" stroke-width="1" opacity="0.14"/>
<line x1="759.3" y1="576.9" x2="1367.7" y2="787.5" stroke="#94a3b8" stroke-width="1" opacity="0.14"/>
<ellipse cx="965" cy="318" rx="290" ry="190" fill="url(#lamp)" opacity="0.55"/>
<g filter="url(#softShadow)"><path d="M533.6 257.1 l160 52 l-92 76 l-160 -52z" fill="#64748b" stroke="#cbd5e1" opacity="0.92"/><path d="M543.6 283.1 l126 41 l-60 48 l-125 -42z" fill="#94a3b8" opacity="0.35"/></g>
<g filter="url(#softShadow)"><path d="M790.4 432.9 l150 52 l-105 86 l-150 -52z" fill="#92400e" stroke="#fbbf24" opacity="0.86"/><path d="M800.4 449.9 l128 44 l-82 66 l-128 -44z" fill="#b45309" opacity="0.65"/></g>
<g filter="url(#softShadow)"><path d="M940.4 412.4 l190 64 l-74 58 l-190 -64z" fill="#f59e0b" stroke="#fef3c7" stroke-width="2"/><path d="M984.4 462.4 l86 29 l-16 15 l-86 -29z" fill="#111827" opacity="0.72"/><circle cx="1053.4" cy="481.4" r="8" fill="#fef3c7"/></g>
<rect x="758.8" y="471.3" width="28.0" height="21.1" rx="5" fill="#94a3b8" stroke="#111827" opacity="0.86" transform="rotate(9.6 758.8 471.3)"/>
<rect x="963.4" y="505.4" width="42.9" height="10.5" rx="5" fill="#64748b" stroke="#111827" opacity="0.62" transform="rotate(-3.8 963.4 505.4)"/>
<rect x="895.5" y="542.2" width="45.0" height="28.1" rx="5" fill="#facc15" stroke="#111827" opacity="0.62" transform="rotate(-3.7 895.5 542.2)"/>
<rect x="831.0" y="519.6" width="56.4" height="19.0" rx="5" fill="#a3a3a3" stroke="#111827" opacity="0.62" transform="rotate(-22.6 831.0 519.6)"/>
<rect x="879.0" y="482.6" width="54.4" height="24.3" rx="5" fill="#f97316" stroke="#111827" opacity="0.62" transform="rotate(0.4 879.0 482.6)"/>
<rect x="878.7" y="464.5" width="24.1" height="11.5" rx="5" fill="#475569" stroke="#111827" opacity="0.86" transform="rotate(24.7 878.7 464.5)"/>
<rect x="951.0" y="477.4" width="59.3" height="22.5" rx="5" fill="#94a3b8" stroke="#111827" opacity="0.62" transform="rotate(-22.2 951.0 477.4)"/>
<rect x="1006.9" y="540.2" width="61.2" height="26.3" rx="5" fill="#64748b" stroke="#111827" opacity="0.62" transform="rotate(-22.7 1006.9 540.2)"/>
<rect x="966.1" y="556.7" width="59.8" height="18.0" rx="5" fill="#facc15" stroke="#111827" opacity="0.62" transform="rotate(1.6 966.1 556.7)"/>
<rect x="883.1" y="434.3" width="57.6" height="28.7" rx="5" fill="#a3a3a3" stroke="#111827" opacity="0.62" transform="rotate(-25.2 883.1 434.3)"/>
<rect x="882.4" y="464.5" width="29.8" height="24.5" rx="5" fill="#f97316" stroke="#111827" opacity="0.86" transform="rotate(26.3 882.4 464.5)"/>
<rect x="824.9" y="406.1" width="42.8" height="28.7" rx="5" fill="#475569" stroke="#111827" opacity="0.62" transform="rotate(25.5 824.9 406.1)"/>
<rect x="865.7" y="409.4" width="62.6" height="24.4" rx="5" fill="#94a3b8" stroke="#111827" opacity="0.62" transform="rotate(-23.3 865.7 409.4)"/>
<rect x="681.0" y="352.2" width="49.9" height="13.7" rx="5" fill="#64748b" stroke="#111827" opacity="0.62" transform="rotate(17.2 681.0 352.2)"/>
<rect x="753.7" y="445.2" width="40.6" height="10.9" rx="5" fill="#facc15" stroke="#111827" opacity="0.62" transform="rotate(-27.9 753.7 445.2)"/>
<rect x="1091.3" y="628.7" width="27.2" height="27.6" rx="5" fill="#a3a3a3" stroke="#111827" opacity="0.86" transform="rotate(27.4 1091.3 628.7)"/>
<rect x="1075.3" y="609.4" width="36.2" height="27.2" rx="5" fill="#f97316" stroke="#111827" opacity="0.62" transform="rotate(-0.1 1075.3 609.4)"/>
<rect x="1054.4" y="574.6" width="57.4" height="30.6" rx="5" fill="#475569" stroke="#111827" opacity="0.62" transform="rotate(-6.4 1054.4 574.6)"/>
<rect x="873.9" y="420.0" width="30.7" height="32.5" rx="5" fill="#94a3b8" stroke="#111827" opacity="0.62" transform="rotate(-5.3 873.9 420.0)"/>
<rect x="949.5" y="519.0" width="32.9" height="24.1" rx="5" fill="#64748b" stroke="#111827" opacity="0.62" transform="rotate(23.1 949.5 519.0)"/>
<rect x="792.2" y="430.1" width="29.8" height="14.3" rx="5" fill="#facc15" stroke="#111827" opacity="0.86" transform="rotate(18.3 792.2 430.1)"/>
<rect x="1024.6" y="603.9" width="50.1" height="33.0" rx="5" fill="#a3a3a3" stroke="#111827" opacity="0.62" transform="rotate(-15.6 1024.6 603.9)"/>
<rect x="723.7" y="386.6" width="38.1" height="33.8" rx="5" fill="#f97316" stroke="#111827" opacity="0.62" transform="rotate(-15.4 723.7 386.6)"/>
<rect x="785.1" y="384.4" width="23.1" height="23.1" rx="5" fill="#475569" stroke="#111827" opacity="0.62" transform="rotate(6.3 785.1 384.4)"/>
<path d="M862.8 486.6 l90.0 -155.9 q46 -30 164.4 -73.2 z" fill="#60a5fa" opacity="0.10" filter="url(#glow)"/>
<circle cx="862.8" cy="486.6" r="74" fill="none" stroke="#60a5fa" stroke-width="2" opacity="0.20" stroke-dasharray="6 10"/>
<path d="M1178.1 611.6 l174.7 43.5 q46 -30 115.7 137.9 z" fill="#34d399" opacity="0.10" filter="url(#glow)"/>
<circle cx="1178.1" cy="611.6" r="74" fill="none" stroke="#34d399" stroke-width="2" opacity="0.20" stroke-dasharray="6 10"/>
<g filter="url(#softShadow)"><path d="M1046.2 496.2 L1142.2 482.2" stroke="#fb923c" stroke-width="11" stroke-linecap="round"/><circle cx="1148.2" cy="480.2" r="15" fill="#f97316" stroke="#fed7aa" stroke-width="3"/></g>
<ellipse cx="862.8" cy="528.6" rx="72" ry="34" fill="#020617" opacity="0.42"/>
<g filter="url(#softShadow)"><ellipse cx="862.8" cy="486.6" rx="58" ry="38" fill="#3b82f6" stroke="#93c5fd" stroke-width="4"/><ellipse cx="854.8" cy="476.6" rx="28" ry="13" fill="#93c5fd" opacity="0.38"/><circle cx="892.8" cy="474.6" r="10" fill="#e0f2fe"/><text x="862.8" y="494.6" font-family="Inter,Arial,sans-serif" font-size="18" font-weight="700" text-anchor="middle" fill="#f8fafc">RA</text></g>
<path d="M880.8 490.6 Q917.2 436.0 927.2 464.0" stroke="#cbd5e1" stroke-width="14" stroke-linecap="round" fill="none" filter="url(#softShadow)"/>
<path d="M927.2 464.0 Q953.0 443.6 965.0 453.6" stroke="#94a3b8" stroke-width="11" stroke-linecap="round" fill="none"/>
<path d="M951.0 444.6 L980.0 463.6 M958.0 465.6 L985.0 446.6" stroke="#f8fafc" stroke-width="4" stroke-linecap="round"/>
<ellipse cx="1178.1" cy="653.6" rx="72" ry="34" fill="#020617" opacity="0.42"/>
<g filter="url(#softShadow)"><ellipse cx="1178.1" cy="611.6" rx="58" ry="38" fill="#22c55e" stroke="#86efac" stroke-width="4"/><ellipse cx="1170.1" cy="601.6" rx="28" ry="13" fill="#86efac" opacity="0.38"/><circle cx="1208.1" cy="599.6" r="10" fill="#e0f2fe"/><text x="1178.1" y="619.6" font-family="Inter,Arial,sans-serif" font-size="18" font-weight="700" text-anchor="middle" fill="#f8fafc">RB</text></g>
<path d="M1196.1 615.6 Q1122.2 551.3 1132.2 579.3" stroke="#cbd5e1" stroke-width="14" stroke-linecap="round" fill="none" filter="url(#softShadow)"/>
<path d="M1132.2 579.3 Q1100.9 548.0 1112.9 558.0" stroke="#94a3b8" stroke-width="11" stroke-linecap="round" fill="none"/>
<path d="M1098.9 549.0 L1127.9 568.0 M1105.9 570.0 L1132.9 551.0" stroke="#f8fafc" stroke-width="4" stroke-linecap="round"/>
<path d="M675 710 C700 625, 775 570, 825 512 C875 455, 900 405, 944 350" fill="none" stroke="#38bdf8" stroke-width="5" opacity="0.16"/>
<path d="M675 710 C700 625, 775 570, 825 512 C875 455, 900 405, 944 350" fill="none" stroke="#67e8f9" stroke-width="3" opacity="0.72" stroke-dasharray="70.9 800" filter="url(#glow)"/>
<g filter="url(#softShadow)">
<rect x="1040" y="54" width="340" height="312" rx="18" fill="#0f172a" opacity="0.88" stroke="#334155"/>
<text x="1064" y="91" font-family="Inter,Arial,sans-serif" font-size="21" font-weight="700" fill="#f8fafc">Drawer opening + tool retrieval</text>
<text x="1064" y="119" font-family="Inter,Arial,sans-serif" font-size="12" fill="#94a3b8">AURORA dual-rate synthetic telemetry</text>
<rect x="1064" y="145" width="112" height="28" rx="14" fill="#22c55e" opacity="0.23" stroke="#22c55e"/><text x="1120" y="164" font-family="Inter,Arial,sans-serif" font-size="12" font-weight="700" text-anchor="middle" fill="#22c55e">NOMINAL</text>
<text x="1064" y="206" font-family="Inter,Arial,sans-serif" font-size="13" fill="#cbd5e1">phase</text><text x="1360" y="206" font-family="Inter,Arial,sans-serif" font-size="13" text-anchor="end" fill="#f8fafc">CENTER_PULL</text>
<text x="1064" y="238" font-family="Inter,Arial,sans-serif" font-size="13" fill="#cbd5e1">success estimate</text>
<rect x="1064" y="250" width="210" height="9" rx="5" fill="#1e293b"/>
<rect x="1064" y="250" width="65.3" height="9" rx="5" fill="#22c55e"/>
<text x="1064" y="286" font-family="Inter,Arial,sans-serif" font-size="13" fill="#cbd5e1">intent age</text>
<rect x="1064" y="298" width="210" height="9" rx="5" fill="#1e293b"/>
<rect x="1064" y="298" width="99.9" height="9" rx="5" fill="#f59e0b"/>
<text x="1064" y="334" font-family="Inter,Arial,sans-serif" font-size="13" fill="#cbd5e1">drawer open</text>
<rect x="1064" y="346" width="210" height="9" rx="5" fill="#1e293b"/>
<rect x="1064" y="346" width="0.0" height="9" rx="5" fill="#38bdf8"/>
<text x="1370" y="334" font-family="Inter,Arial,sans-serif" font-size="13" text-anchor="end" fill="#f8fafc">t=4.9s</text>
</g>
<g filter="url(#softShadow)">
<rect x="1040" y="398" width="340" height="226" rx="18" fill="#020617" opacity="0.94" stroke="#334155"/>
<text x="1064" y="431" font-family="Inter,Arial,sans-serif" font-size="15" font-weight="700" fill="#e5e7eb">wrist RGB-D synthetic feed</text>
<rect x="1064" y="452" width="292" height="134" rx="10" fill="#111827" stroke="#475569"/>
<path d="M1086 584 C1128 505, 1256 506, 1328 584" fill="#64748b" opacity="0.68"/>
<line x1="1130" y1="578" x2="1184" y2="512" stroke="#e5e7eb" stroke-width="9" stroke-linecap="round"/>
<line x1="1262" y1="512" x2="1316" y2="578" stroke="#e5e7eb" stroke-width="9" stroke-linecap="round"/>
<rect x="1120.0" y="520" width="112.0" height="52" rx="6" fill="#f59e0b" stroke="#fef3c7"/>
<circle cx="1334" cy="430" r="6" fill="#22c55e" filter="url(#glow)"/>
<text x="1064" y="610" font-family="Inter,Arial,sans-serif" font-size="11" fill="#94a3b8">depth confidence, gripper aperture, contact envelope</text>
</g>
<g filter="url(#softShadow)">
<rect x="1040" y="650" width="340" height="174" rx="18" fill="#0f172a" opacity="0.88" stroke="#334155"/>
<text x="1064" y="676" font-family="Inter,Arial,sans-serif" font-size="15" font-weight="700" fill="#e5e7eb">local occupancy crop</text>
<rect x="1064" y="676" width="18" height="16" rx="3" fill="#67e8f9" opacity="0.59"/>
<rect x="1087" y="676" width="18" height="16" rx="3" fill="#082f49" opacity="0.65"/>
<rect x="1110" y="676" width="18" height="16" rx="3" fill="#0e7490" opacity="0.71"/>
<rect x="1133" y="676" width="18" height="16" rx="3" fill="#0891b2" opacity="0.77"/>
<rect x="1156" y="676" width="18" height="16" rx="3" fill="#22d3ee" opacity="0.83"/>
<rect x="1179" y="676" width="18" height="16" rx="3" fill="#082f49" opacity="0.35"/>
<rect x="1202" y="676" width="18" height="16" rx="3" fill="#0e7490" opacity="0.41"/>
<rect x="1225" y="676" width="18" height="16" rx="3" fill="#0891b2" opacity="0.47"/>
<rect x="1064" y="697" width="18" height="16" rx="3" fill="#22d3ee" opacity="0.53"/>
<rect x="1087" y="697" width="18" height="16" rx="3" fill="#67e8f9" opacity="0.59"/>
<rect x="1110" y="697" width="18" height="16" rx="3" fill="#082f49" opacity="0.65"/>
<rect x="1133" y="697" width="18" height="16" rx="3" fill="#0e7490" opacity="0.71"/>
<rect x="1156" y="697" width="18" height="16" rx="3" fill="#0891b2" opacity="0.77"/>
<rect x="1179" y="697" width="18" height="16" rx="3" fill="#22d3ee" opacity="0.83"/>
<rect x="1202" y="697" width="18" height="16" rx="3" fill="#082f49" opacity="0.35"/>
<rect x="1225" y="697" width="18" height="16" rx="3" fill="#0e7490" opacity="0.41"/>
<rect x="1064" y="718" width="18" height="16" rx="3" fill="#0891b2" opacity="0.47"/>
<rect x="1087" y="718" width="18" height="16" rx="3" fill="#22d3ee" opacity="0.53"/>
<rect x="1110" y="718" width="18" height="16" rx="3" fill="#67e8f9" opacity="0.59"/>
<rect x="1133" y="718" width="18" height="16" rx="3" fill="#082f49" opacity="0.65"/>
<rect x="1156" y="718" width="18" height="16" rx="3" fill="#0e7490" opacity="0.71"/>
<rect x="1179" y="718" width="18" height="16" rx="3" fill="#0891b2" opacity="0.77"/>
<rect x="1202" y="718" width="18" height="16" rx="3" fill="#22d3ee" opacity="0.83"/>
<rect x="1225" y="718" width="18" height="16" rx="3" fill="#082f49" opacity="0.35"/>
<rect x="1064" y="739" width="18" height="16" rx="3" fill="#0e7490" opacity="0.41"/>
<rect x="1087" y="739" width="18" height="16" rx="3" fill="#0891b2" opacity="0.47"/>
<rect x="1110" y="739" width="18" height="16" rx="3" fill="#22d3ee" opacity="0.53"/>
<rect x="1133" y="739" width="18" height="16" rx="3" fill="#67e8f9" opacity="0.59"/>
<rect x="1156" y="739" width="18" height="16" rx="3" fill="#082f49" opacity="0.65"/>
<rect x="1179" y="739" width="18" height="16" rx="3" fill="#0e7490" opacity="0.71"/>
<rect x="1202" y="739" width="18" height="16" rx="3" fill="#0891b2" opacity="0.77"/>
<rect x="1225" y="739" width="18" height="16" rx="3" fill="#22d3ee" opacity="0.83"/>
<rect x="1270" y="690" width="70" height="70" rx="35" fill="none" stroke="#f87171" stroke-width="2" stroke-dasharray="6 5"/>
<text x="1064" y="800" font-family="Inter,Arial,sans-serif" font-size="11" fill="#94a3b8">blue = free/observed · red ring = peer exclusion volume</text>
</g>
<rect x="0" y="0" width="1440" height="900" fill="url(#dust)" opacity="0.33"/>
<rect x="0" y="0" width="1440" height="900" fill="none" stroke="#1e293b" stroke-width="18" opacity="0.55"/>
</svg>