<svg xmlns="http://www.w3.org/2000/svg" width="988" height="1022" viewBox="0 0 988 1022">
<rect width="100%" height="100%" fill="#f8fafc"/>
<text x="22" y="38" font-family="Inter,Arial,sans-serif" font-size="24" font-weight="700" fill="#111827">Simulated AURORA run contact sheet</text>
<text x="22" y="61" font-family="Inter,Arial,sans-serif" font-size="13" fill="#64748b">Synthetic frames, not real robot images</text>
<rect x="22" y="88" width="300" height="193" rx="7" fill="#e2e8f0" stroke="#94a3b8"/>
<image href="frames/frame_0001.svg" x="22" y="88" width="300" height="193" preserveAspectRatio="xMidYMid meet"/>
<text x="22" y="303" font-family="Inter,Arial,sans-serif" font-size="12" fill="#334155">HANDLE_SEARCH · t=0.0s</text>
<rect x="344" y="88" width="300" height="193" rx="7" fill="#e2e8f0" stroke="#94a3b8"/>
<image href="frames/frame_0002.svg" x="344" y="88" width="300" height="193" preserveAspectRatio="xMidYMid meet"/>
<text x="344" y="303" font-family="Inter,Arial,sans-serif" font-size="12" fill="#334155">HANDLE_SEARCH · t=1.64s</text>
<rect x="666" y="88" width="300" height="193" rx="7" fill="#e2e8f0" stroke="#94a3b8"/>
<image href="frames/frame_0003.svg" x="666" y="88" width="300" height="193" preserveAspectRatio="xMidYMid meet"/>
<text x="666" y="303" font-family="Inter,Arial,sans-serif" font-size="12" fill="#334155">HANDLE_SEARCH · t=3.27s</text>
<rect x="22" y="323" width="300" height="193" rx="7" fill="#e2e8f0" stroke="#94a3b8"/>
<image href="frames/frame_0004.svg" x="22" y="323" width="300" height="193" preserveAspectRatio="xMidYMid meet"/>
<text x="22" y="538" font-family="Inter,Arial,sans-serif" font-size="12" fill="#334155">CENTER_PULL · t=4.91s</text>
<rect x="344" y="323" width="300" height="193" rx="7" fill="#e2e8f0" stroke="#94a3b8"/>
<image href="frames/frame_0005.svg" x="344" y="323" width="300" height="193" preserveAspectRatio="xMidYMid meet"/>
<text x="344" y="538" font-family="Inter,Arial,sans-serif" font-size="12" fill="#334155">CENTER_PULL · t=6.55s</text>
<rect x="666" y="323" width="300" height="193" rx="7" fill="#e2e8f0" stroke="#94a3b8"/>
<image href="frames/frame_0006.svg" x="666" y="323" width="300" height="193" preserveAspectRatio="xMidYMid meet"/>
<text x="666" y="538" font-family="Inter,Arial,sans-serif" font-size="12" fill="#334155">RECENTER · t=8.18s</text>
<rect x="22" y="558" width="300" height="193" rx="7" fill="#e2e8f0" stroke="#94a3b8"/>
<image href="frames/frame_0007.svg" x="22" y="558" width="300" height="193" preserveAspectRatio="xMidYMid meet"/>
<text x="22" y="773" font-family="Inter,Arial,sans-serif" font-size="12" fill="#334155">RECENTER · t=9.82s</text>
<rect x="344" y="558" width="300" height="193" rx="7" fill="#e2e8f0" stroke="#94a3b8"/>
<image href="frames/frame_0008.svg" x="344" y="558" width="300" height="193" preserveAspectRatio="xMidYMid meet"/>
<text x="344" y="773" font-family="Inter,Arial,sans-serif" font-size="12" fill="#334155">OPEN · t=11.45s</text>
<rect x="666" y="558" width="300" height="193" rx="7" fill="#e2e8f0" stroke="#94a3b8"/>
<image href="frames/frame_0009.svg" x="666" y="558" width="300" height="193" preserveAspectRatio="xMidYMid meet"/>
<text x="666" y="773" font-family="Inter,Arial,sans-serif" font-size="12" fill="#334155">OPEN · t=13.09s</text>
<rect x="22" y="793" width="300" height="193" rx="7" fill="#e2e8f0" stroke="#94a3b8"/>
<image href="frames/frame_0010.svg" x="22" y="793" width="300" height="193" preserveAspectRatio="xMidYMid meet"/>
<text x="22" y="1008" font-family="Inter,Arial,sans-serif" font-size="12" fill="#334155">RETRIEVE · t=14.73s</text>
<rect x="344" y="793" width="300" height="193" rx="7" fill="#e2e8f0" stroke="#94a3b8"/>
<image href="frames/frame_0011.svg" x="344" y="793" width="300" height="193" preserveAspectRatio="xMidYMid meet"/>
<text x="344" y="1008" font-family="Inter,Arial,sans-serif" font-size="12" fill="#334155">RETRIEVE · t=16.36s</text>
<rect x="666" y="793" width="300" height="193" rx="7" fill="#e2e8f0" stroke="#94a3b8"/>
<image href="frames/frame_0012.svg" x="666" y="793" width="300" height="193" preserveAspectRatio="xMidYMid meet"/>
<text x="666" y="1008" font-family="Inter,Arial,sans-serif" font-size="12" fill="#334155">RETRIEVE · t=18.0s</text>
</svg>