<svg xmlns="http://www.w3.org/2000/svg" width="1100" height="620" viewBox="0 0 1100 620">
<style>text{font-family:Inter,Arial,sans-serif;fill:#1f2937}.title{font-weight:700;font-size:28px}.label{font-size:15px}.small{font-size:12px;fill:#64748b}.axis{stroke:#94a3b8;stroke-width:1}.grid{stroke:#d7dee8;stroke-width:1}.box{stroke:#334155;stroke-width:1.2;rx:8}.arrow{stroke:#334155;stroke-width:2;fill:none;marker-end:url(#arrow)}</style>
<defs><marker id="arrow" viewBox="0 0 10 10" refX="8" refY="5" markerWidth="7" markerHeight="7" orient="auto-start-reverse"><path d="M 0 0 L 10 5 L 0 10 z" fill="#334155"/></marker></defs>
<text x="550.0" y="45.0" class="title" text-anchor="middle">Final edge p95 latency profile, milliseconds</text>
<line x1="95" y1="500.0" x2="1065" y2="500.0" class="grid"/>
<text x="81.0" y="504.0" class="small" text-anchor="end">0</text>
<line x1="95" y1="417.2" x2="1065" y2="417.2" class="grid"/>
<text x="81.0" y="421.2" class="small" text-anchor="end">46</text>
<line x1="95" y1="334.4" x2="1065" y2="334.4" class="grid"/>
<text x="81.0" y="338.4" class="small" text-anchor="end">92</text>
<line x1="95" y1="251.6" x2="1065" y2="251.6" class="grid"/>
<text x="81.0" y="255.6" class="small" text-anchor="end">1.4e+02</text>
<line x1="95" y1="168.8" x2="1065" y2="168.8" class="grid"/>
<text x="81.0" y="172.8" class="small" text-anchor="end">1.8e+02</text>
<line x1="95" y1="86.0" x2="1065" y2="86.0" class="grid"/>
<text x="81.0" y="90.0" class="small" text-anchor="end">2.3e+02</text>
<line x1="95" y1="86" x2="95" y2="500" class="axis"/>
<line x1="95" y1="500" x2="1065" y2="500" class="axis"/>
<text x="175.8" y="528.0" class="small" text-anchor="middle">camera</text>
<rect x="127.8" y="441.0" width="39.4" height="59.0" rx="7" fill="#2563eb" stroke="none"/>
<text x="147.5" y="435.0" class="small" text-anchor="middle">33</text>
<rect x="175.8" y="443.1" width="39.4" height="56.9" rx="7" fill="#0f766e" stroke="none"/>
<text x="195.5" y="437.1" class="small" text-anchor="middle">32</text>
<text x="337.5" y="528.0" class="small" text-anchor="middle">tsdf</text>
<rect x="289.5" y="491.2" width="39.4" height="8.8" rx="7" fill="#2563eb" stroke="none"/>
<text x="309.2" y="485.2" class="small" text-anchor="middle">4.9</text>
<rect x="337.5" y="491.5" width="39.4" height="8.5" rx="7" fill="#0f766e" stroke="none"/>
<text x="357.2" y="485.5" class="small" text-anchor="middle">4.7</text>
<text x="499.2" y="528.0" class="small" text-anchor="middle">semantic</text>
<rect x="451.2" y="118.8" width="39.4" height="381.2" rx="7" fill="#2563eb" stroke="none"/>
<text x="470.8" y="112.8" class="small" text-anchor="middle">2.1e+02</text>
<rect x="499.2" y="109.9" width="39.4" height="390.1" rx="7" fill="#0f766e" stroke="none"/>
<text x="518.8" y="103.9" class="small" text-anchor="middle">2.2e+02</text>
<text x="660.8" y="528.0" class="small" text-anchor="middle">controller</text>
<rect x="612.8" y="490.1" width="39.4" height="9.9" rx="7" fill="#2563eb" stroke="none"/>
<text x="632.5" y="484.1" class="small" text-anchor="middle">5.5</text>
<rect x="660.8" y="489.9" width="39.4" height="10.1" rx="7" fill="#0f766e" stroke="none"/>
<text x="680.5" y="483.9" class="small" text-anchor="middle">5.6</text>
<text x="822.5" y="528.0" class="small" text-anchor="middle">safety</text>
<rect x="774.5" y="498.4" width="39.4" height="1.6" rx="7" fill="#2563eb" stroke="none"/>
<text x="794.2" y="492.4" class="small" text-anchor="middle">0.9</text>
<rect x="822.5" y="498.4" width="39.4" height="1.6" rx="7" fill="#0f766e" stroke="none"/>
<text x="842.2" y="492.4" class="small" text-anchor="middle">0.9</text>
<text x="984.2" y="528.0" class="small" text-anchor="middle">cmd</text>
<rect x="936.2" y="497.7" width="39.4" height="2.3" rx="7" fill="#2563eb" stroke="none"/>
<text x="955.8" y="491.7" class="small" text-anchor="middle">1.3</text>
<rect x="984.2" y="497.5" width="39.4" height="2.5" rx="7" fill="#0f766e" stroke="none"/>
<text x="1003.8" y="491.5" class="small" text-anchor="middle">1.4</text>
<rect x="95.0" y="572.0" width="18.0" height="18.0" rx="7" fill="#2563eb" stroke="none"/>
<text x="120.0" y="586.0" class="small" text-anchor="start">Robot A</text>
<rect x="260.0" y="572.0" width="18.0" height="18.0" rx="7" fill="#0f766e" stroke="none"/>
<text x="285.0" y="586.0" class="small" text-anchor="start">Robot B</text>
</svg>