<svg xmlns="http://www.w3.org/2000/svg" width="1100" height="620" viewBox="0 0 1100 620">
<style>text{font-family:Inter,Arial,sans-serif;fill:#1f2937}.title{font-weight:700;font-size:28px}.label{font-size:15px}.small{font-size:12px;fill:#64748b}.axis{stroke:#94a3b8;stroke-width:1}.grid{stroke:#d7dee8;stroke-width:1}.box{stroke:#334155;stroke-width:1.2;rx:8}.arrow{stroke:#334155;stroke-width:2;fill:none;marker-end:url(#arrow)}</style>
<defs><marker id="arrow" viewBox="0 0 10 10" refX="8" refY="5" markerWidth="7" markerHeight="7" orient="auto-start-reverse"><path d="M 0 0 L 10 5 L 0 10 z" fill="#334155"/></marker></defs>
<text x="550.0" y="45.0" class="title" text-anchor="middle">PPO residual recovery diagnostics</text>
<line x1="95" y1="500.0" x2="1065" y2="500.0" class="grid"/>
<text x="81.0" y="504.0" class="small" text-anchor="end">0</text>
<line x1="95" y1="417.2" x2="1065" y2="417.2" class="grid"/>
<text x="81.0" y="421.2" class="small" text-anchor="end">0.11</text>
<line x1="95" y1="334.4" x2="1065" y2="334.4" class="grid"/>
<text x="81.0" y="338.4" class="small" text-anchor="end">0.22</text>
<line x1="95" y1="251.6" x2="1065" y2="251.6" class="grid"/>
<text x="81.0" y="255.6" class="small" text-anchor="end">0.33</text>
<line x1="95" y1="168.8" x2="1065" y2="168.8" class="grid"/>
<text x="81.0" y="172.8" class="small" text-anchor="end">0.44</text>
<line x1="95" y1="86.0" x2="1065" y2="86.0" class="grid"/>
<text x="81.0" y="90.0" class="small" text-anchor="end">0.55</text>
<line x1="95" y1="86" x2="95" y2="500" class="axis"/>
<line x1="95" y1="500" x2="1065" y2="500" class="axis"/>
<text x="256.7" y="528.0" class="small" text-anchor="middle">E154</text>
<rect x="184.7" y="281.7" width="39.4" height="218.3" rx="7" fill="#16a34a" stroke="none"/>
<text x="204.3" y="275.7" class="small" text-anchor="middle">0.29</text>
<rect x="232.7" y="266.7" width="39.4" height="233.3" rx="7" fill="#dc2626" stroke="none"/>
<text x="252.3" y="260.7" class="small" text-anchor="middle">0.31</text>
<rect x="280.7" y="467.6" width="39.4" height="32.4" rx="7" fill="#2563eb" stroke="none"/>
<text x="300.3" y="461.6" class="small" text-anchor="middle">0.043</text>
<text x="580.0" y="528.0" class="small" text-anchor="middle">E155</text>
<rect x="508.0" y="168.8" width="39.4" height="331.2" rx="7" fill="#16a34a" stroke="none"/>
<text x="527.7" y="162.8" class="small" text-anchor="middle">0.44</text>
<rect x="556.0" y="447.3" width="39.4" height="52.7" rx="7" fill="#dc2626" stroke="none"/>
<text x="575.7" y="441.3" class="small" text-anchor="middle">0.07</text>
<rect x="604.0" y="204.9" width="39.4" height="295.1" rx="7" fill="#2563eb" stroke="none"/>
<text x="623.7" y="198.9" class="small" text-anchor="middle">0.39</text>
<text x="903.3" y="528.0" class="small" text-anchor="middle">E158</text>
<rect x="831.3" y="146.2" width="39.4" height="353.8" rx="7" fill="#16a34a" stroke="none"/>
<text x="851.0" y="140.2" class="small" text-anchor="middle">0.47</text>
<rect x="879.3" y="454.8" width="39.4" height="45.2" rx="7" fill="#dc2626" stroke="none"/>
<text x="899.0" y="448.8" class="small" text-anchor="middle">0.06</text>
<rect x="927.3" y="246.3" width="39.4" height="253.7" rx="7" fill="#2563eb" stroke="none"/>
<text x="947.0" y="240.3" class="small" text-anchor="middle">0.34</text>
<rect x="95.0" y="572.0" width="18.0" height="18.0" rx="7" fill="#16a34a" stroke="none"/>
<text x="120.0" y="586.0" class="small" text-anchor="start">Recovery success</text>
<rect x="260.0" y="572.0" width="18.0" height="18.0" rx="7" fill="#dc2626" stroke="none"/>
<text x="285.0" y="586.0" class="small" text-anchor="start">Freeze rate</text>
<rect x="425.0" y="572.0" width="18.0" height="18.0" rx="7" fill="#2563eb" stroke="none"/>
<text x="450.0" y="586.0" class="small" text-anchor="start">Entropy</text>
</svg>