<svg xmlns="http://www.w3.org/2000/svg" width="1100" height="620" viewBox="0 0 1100 620">
<style>text{font-family:Inter,Arial,sans-serif;fill:#1f2937}.title{font-weight:700;font-size:28px}.label{font-size:15px}.small{font-size:12px;fill:#64748b}.axis{stroke:#94a3b8;stroke-width:1}.grid{stroke:#d7dee8;stroke-width:1}.box{stroke:#334155;stroke-width:1.2;rx:8}.arrow{stroke:#334155;stroke-width:2;fill:none;marker-end:url(#arrow)}</style>
<defs><marker id="arrow" viewBox="0 0 10 10" refX="8" refY="5" markerWidth="7" markerHeight="7" orient="auto-start-reverse"><path d="M 0 0 L 10 5 L 0 10 z" fill="#334155"/></marker></defs>
<text x="550.0" y="45.0" class="title" text-anchor="middle">Quantization tradeoff: planner latency vs rare-tool success</text>
<line x1="100.0" y1="80" x2="100.0" y2="530" class="grid"/>
<text x="100.0" y="556.0" class="small" text-anchor="middle">130</text>
<line x1="100" y1="530.0" x2="1040" y2="530.0" class="grid"/>
<text x="86.0" y="534.0" class="small" text-anchor="end">0.35</text>
<line x1="288.0" y1="80" x2="288.0" y2="530" class="grid"/>
<text x="288.0" y="556.0" class="small" text-anchor="middle">186</text>
<line x1="100" y1="440.0" x2="1040" y2="440.0" class="grid"/>
<text x="86.0" y="444.0" class="small" text-anchor="end">0.40</text>
<line x1="476.0" y1="80" x2="476.0" y2="530" class="grid"/>
<text x="476.0" y="556.0" class="small" text-anchor="middle">242</text>
<line x1="100" y1="350.0" x2="1040" y2="350.0" class="grid"/>
<text x="86.0" y="354.0" class="small" text-anchor="end">0.46</text>
<line x1="664.0" y1="80" x2="664.0" y2="530" class="grid"/>
<text x="664.0" y="556.0" class="small" text-anchor="middle">298</text>
<line x1="100" y1="260.0" x2="1040" y2="260.0" class="grid"/>
<text x="86.0" y="264.0" class="small" text-anchor="end">0.51</text>
<line x1="852.0" y1="80" x2="852.0" y2="530" class="grid"/>
<text x="852.0" y="556.0" class="small" text-anchor="middle">354</text>
<line x1="100" y1="170.0" x2="1040" y2="170.0" class="grid"/>
<text x="86.0" y="174.0" class="small" text-anchor="end">0.57</text>
<line x1="1040.0" y1="80" x2="1040.0" y2="530" class="grid"/>
<text x="1040.0" y="556.0" class="small" text-anchor="middle">410</text>
<line x1="100" y1="80.0" x2="1040" y2="80.0" class="grid"/>
<text x="86.0" y="84.0" class="small" text-anchor="end">0.62</text>
<line x1="100" y1="80" x2="100" y2="530" class="axis"/>
<line x1="100" y1="530" x2="1040" y2="530" class="axis"/>
<circle cx="979.6" cy="146.7" r="10" fill="#7c3aed" stroke="#111827" stroke-width="1"/>
<text x="995.6" y="134.7" class="small" text-anchor="start">FP16 sem+ctrl</text>
<circle cx="180.6" cy="430.0" r="10" fill="#dc2626" stroke="#111827" stroke-width="1"/>
<text x="196.6" y="418.0" class="small" text-anchor="start">INT8 all sem</text>
<circle cx="388.7" cy="213.3" r="10" fill="#16a34a" stroke="#111827" stroke-width="1"/>
<text x="404.7" y="201.3" class="small" text-anchor="start">INT4+FP16 heads</text>
<circle cx="382.0" cy="246.7" r="10" fill="#d97706" stroke="#111827" stroke-width="1"/>
<text x="398.0" y="234.7" class="small" text-anchor="start">INT4+INT8 ctrl</text>
<circle cx="388.7" cy="213.3" r="10" fill="#2563eb" stroke="#111827" stroke-width="1"/>
<text x="404.7" y="201.3" class="small" text-anchor="start">Final</text>
<text x="550.0" y="595.0" class="label" text-anchor="middle">Planner p95 latency (ms)</text>
<text x="30" y="310.0" class="label" transform="rotate(-90 30 310.0)" text-anchor="middle">Rare-tool success</text>
</svg>